{"title":"The Oscars 2013 (The 85th Annual Academy Awards) 2013","uid":8193281,"size":934236960,"categoryP":"video","categoryS":"tv_shows","magnet":"?xt=urn:btih:80bafb4c20651f9cac79d99d7d35d0ba4ca63898&amp;dn=The+Oscars+2013+%28The+85th+Annual+Academy+Awards%29+2013&amp;tr=udp%3A%2F%2Ftracker.openbittorrent.com%3A80&amp;tr=udp%3A%2F%2Fopen.demonii.com%3A1337&amp;tr=udp%3A%2F%2Ftracker.coppersurfer.tk%3A6969&amp;tr=udp%3A%2F%2Fexodus.desync.com%3A6969","seeders":7,"leechers":0,"uploader":"brego45","files":1,"time":1361879422,"description":"\n &lt;a href=&quot;\nhttp://desibbrg.net/imghost/show.php?img=429884_vlcsnap2013022508h47m28s143.png.html&quot; rel=&quot;nofollow&quot; target=&quot;_NEW&quot;&gt;\nhttp://desibbrg.net/imghost/show.php?img=429884_vlcsnap2013022508h47m28s143.png.html&lt;/a&gt; &lt;a href=&quot;\nhttp://desibbrg.net/imghost/show.php?img=429883_vlcsnap2013022508h47m23s96.png.html&quot; rel=&quot;nofollow&quot; target=&quot;_NEW&quot;&gt;\nhttp://desibbrg.net/imghost/show.php?img=429883_vlcsnap2013022508h47m23s96.png.html&lt;/a&gt; &lt;a href=&quot;\nhttp://desibbrg.net/imghost/show.php?img=429882_vlcsnap2013022508h47m21s62.png.html&quot; rel=&quot;nofollow&quot; target=&quot;_NEW&quot;&gt;\nhttp://desibbrg.net/imghost/show.php?img=429882_vlcsnap2013022508h47m21s62.png.html&lt;/a&gt; &lt;a href=&quot;\nhttp://desibbrg.net/imghost/show.php?img=429881_vlcsnap2013022508h47m08s181.png.html&quot; rel=&quot;nofollow&quot; target=&quot;_NEW&quot;&gt;\nhttp://desibbrg.net/imghost/show.php?img=429881_vlcsnap2013022508h47m08s181.png.html&lt;/a&gt; &lt;a href=&quot;\nhttp://desibbrg.net/imghost/show.php?img=429880_vlcsnap2013022508h47m02s129.png.html&quot; rel=&quot;nofollow&quot; target=&quot;_NEW&quot;&gt;\nhttp://desibbrg.net/imghost/show.php?img=429880_vlcsnap2013022508h47m02s129.png.html&lt;/a&gt; &lt;a href=&quot;\nhttp://desibbrg.net/imghost/show.php?img=429885_The.Oscars.2013.The.85th.Annual.Academy.Awards.2013.EXD.RRG.DBB.DADA.mp4thumbs2013.02.2611.18.22.jpg.html&quot; rel=&quot;nofollow&quot; target=&quot;_NEW&quot;&gt;\nhttp://desibbrg.net/imghost/show.php?img=429885_The.Oscars.2013.The.85th.Annual.Academy.Awards.2013.EXD.RRG.DBB.DADA.mp4thumbs2013.02.2611.18.22.jpg.html&lt;/a&gt;\n\n\n\nGeneral\n\nFormat                           : MPEG-4\nFormat profile                   : Base Media / Version 2\nCodec ID                         : mp42\nFile size                        : 891 MiB\nDuration                         : 2h 53mn\nOverall bit rate                 : 718 Kbps\nEncoded date                     : UTC 2013-02-25 11:41:35\nTagged date                      : UTC 2013-02-25 11:55:45\n\n\nVideo\nID                               : 1\nFormat                           : AVC\nFormat/Info                      : Advanced Video Codec\nFormat profile                   : &lt;a class=&quot;__cf_email__&quot; href=&quot;/cdn-cgi/l/email-protection&quot; data-cfemail=&quot;d994b8b0b79995eaf7e9&quot;&gt;[email&amp;#160;protected]&lt;/a&gt;&lt;script cf-hash='f9e31' type=&quot;text/javascript&quot;&gt;\n/* &lt;![CDATA[ */!function(){try{var t=&quot;currentScript&quot;in document?document.currentScript:function(){for(var t=document.getElementsByTagName(&quot;script&quot;),e=t.length;e--;)if(t[e].getAttribute(&quot;cf-hash&quot;))return t[e]}();if(t&amp;&amp;t.previousSibling){var e,r,n,i,c=t.previousSibling,a=c.getAttribute(&quot;data-cfemail&quot;);if(a){for(e=&quot;&quot;,r=parseInt(a.substr(0,2),16),n=2;a.length-n;n+=2)i=parseInt(a.substr(n,2),16)^r,e+=String.fromCharCode(i);e=document.createTextNode(e),c.parentNode.replaceChild(e,c)}}}catch(u){}}();/* ]]&gt; */&lt;/script&gt;\nFormat settings, CABAC           : Yes\nFormat settings, ReFrames        : 4 frames\nCodec ID                         : avc1\nCodec ID/Info                    : Advanced Video Coding\nDuration                         : 2h 53mn\nBit rate mode                    : Variable\nBit rate                         : 550 Kbps\nWidth                            : 720 pixels\nHeight                           : 404 pixels\nDisplay aspect ratio             : 16:9\nFrame rate mode                  : Variable\nFrame rate                       : 29.970 fps\nMinimum frame rate               : 9.990 fps\nMaximum frame rate               : 29.970 fps\nColor space                      : YUV\nChroma subsampling               : 4:2:0\nBit depth                        : 8 bits\nScan type                        : Progressive\nBits/(Pixel*Frame)               : 0.063\nStream size                      : 686 MiB (77%)\nWriting library                  : x264 core 120\n\nAudio\nID                               : 2\nFormat                           : AAC\nFormat/Info                      : Advanced Audio Codec\nFormat version                   : Version 4\nFormat profile                   : LC\nFormat settings, SBR             : No\nCodec ID                         : 40\nDuration                         : 2h 53mn\nBit rate mode                    : Variable\nBit rate                         : 160 Kbps\nMaximum bit rate                 : 321 Kbps\nChannel(s)                       : 2 channels\nChannel positions                : Front: L R\nSampling rate                    : 48.0 KHz\nStream size                      : 198 MiB (22%)","torrent":{"xt":"urn:btih:80bafb4c20651f9cac79d99d7d35d0ba4ca63898","amp;dn":"The+Oscars+2013+%28The+85th+Annual+Academy+Awards%29+2013","amp;tr":["udp%3A%2F%2Ftracker.openbittorrent.com%3A80","udp%3A%2F%2Fopen.demonii.com%3A1337","udp%3A%2F%2Ftracker.coppersurfer.tk%3A6969","udp%3A%2F%2Fexodus.desync.com%3A6969"],"infoHash":"80bafb4c20651f9cac79d99d7d35d0ba4ca63898","infoHashBuffer":{"type":"Buffer","data":[128,186,251,76,32,101,31,156,172,121,217,157,125,53,208,186,76,166,56,152]},"announce":[],"urlList":[]}}